<mxfile host="app.diagrams.net" modified="2023-09-17T19:34:52.082Z" agent="Mozilla/5.0 (Windows NT 10.0; Win64; x64; rv:109.0) Gecko/20100101 Firefox/117.0" etag="wxSba37DJCbig9-S5fwu" version="21.7.5" type="github">
  <diagram name="Page-1" id="58cdce13-f638-feb5-8d6f-7d28b1aa9fa0">
    <mxGraphModel dx="1070" dy="566" grid="1" gridSize="10" guides="1" tooltips="1" connect="1" arrows="1" fold="1" page="1" pageScale="1" pageWidth="1100" pageHeight="850" background="none" math="0" shadow="0">
      <root>
        <mxCell id="0" />
        <mxCell id="1" parent="0" />
        <mxCell id="yniILu94unpiqvauo760-4" value="" style="ellipse;whiteSpace=wrap;html=1;aspect=fixed;strokeColor=#000000;fillColor=#000000;fontSize=15;" vertex="1" parent="1">
          <mxGeometry x="13" y="37.5" width="30" height="30" as="geometry" />
        </mxCell>
        <mxCell id="yniILu94unpiqvauo760-5" value="" style="endArrow=classic;html=1;rounded=0;exitX=1;exitY=0.5;exitDx=0;exitDy=0;entryX=0;entryY=0.5;entryDx=0;entryDy=0;strokeColor=#FF3333;fontSize=15;" edge="1" parent="1" source="yniILu94unpiqvauo760-4" target="yniILu94unpiqvauo760-6">
          <mxGeometry width="50" height="50" relative="1" as="geometry">
            <mxPoint x="305" y="190" as="sourcePoint" />
            <mxPoint x="115" y="45" as="targetPoint" />
          </mxGeometry>
        </mxCell>
        <mxCell id="yniILu94unpiqvauo760-6" value="" style="rounded=1;whiteSpace=wrap;html=1;fontSize=15;fontColor=#000000;verticalAlign=top;" vertex="1" parent="1">
          <mxGeometry x="115" y="10" width="150" height="85" as="geometry" />
        </mxCell>
        <mxCell id="yniILu94unpiqvauo760-7" value="" style="endArrow=none;html=1;rounded=0;labelBorderColor=none;strokeColor=#000000;fontSize=15;fontColor=#000000;exitX=0;exitY=0.5;exitDx=0;exitDy=0;entryX=1;entryY=0.5;entryDx=0;entryDy=0;" edge="1" parent="1" source="yniILu94unpiqvauo760-6" target="yniILu94unpiqvauo760-6">
          <mxGeometry width="50" height="50" relative="1" as="geometry">
            <mxPoint x="365" y="230" as="sourcePoint" />
            <mxPoint x="415" y="180" as="targetPoint" />
          </mxGeometry>
        </mxCell>
        <mxCell id="yniILu94unpiqvauo760-8" value="Registration" style="text;html=1;strokeColor=none;fillColor=none;align=center;verticalAlign=middle;whiteSpace=wrap;rounded=0;fontSize=15;fontColor=#000000;" vertex="1" parent="1">
          <mxGeometry x="160" y="20" width="60" height="30" as="geometry" />
        </mxCell>
        <mxCell id="yniILu94unpiqvauo760-9" value="Do: User Registration" style="text;html=1;strokeColor=none;fillColor=none;align=center;verticalAlign=middle;whiteSpace=wrap;rounded=0;fontSize=15;fontColor=#000000;" vertex="1" parent="1">
          <mxGeometry x="115" y="60" width="150" height="30" as="geometry" />
        </mxCell>
        <mxCell id="yniILu94unpiqvauo760-10" value="" style="rounded=1;whiteSpace=wrap;html=1;fontSize=15;fontColor=#000000;verticalAlign=top;" vertex="1" parent="1">
          <mxGeometry x="382" y="10" width="150" height="85" as="geometry" />
        </mxCell>
        <mxCell id="yniILu94unpiqvauo760-11" value="" style="endArrow=classic;html=1;rounded=0;exitX=1;exitY=0.5;exitDx=0;exitDy=0;entryX=0;entryY=0.5;entryDx=0;entryDy=0;strokeColor=#FF3333;fontSize=15;" edge="1" parent="1" source="yniILu94unpiqvauo760-6" target="yniILu94unpiqvauo760-10">
          <mxGeometry width="50" height="50" relative="1" as="geometry">
            <mxPoint x="277.5" y="60" as="sourcePoint" />
            <mxPoint x="357.5" y="60" as="targetPoint" />
          </mxGeometry>
        </mxCell>
        <mxCell id="yniILu94unpiqvauo760-12" value="Name" style="text;html=1;align=center;verticalAlign=middle;resizable=0;points=[];autosize=1;strokeColor=none;fillColor=none;fontSize=15;fontColor=#000000;" vertex="1" parent="1">
          <mxGeometry x="275" y="30" width="60" height="30" as="geometry" />
        </mxCell>
        <mxCell id="yniILu94unpiqvauo760-13" value="Email" style="text;html=1;align=center;verticalAlign=middle;resizable=0;points=[];autosize=1;strokeColor=none;fillColor=none;fontSize=15;fontColor=#000000;" vertex="1" parent="1">
          <mxGeometry x="275" y="50" width="60" height="30" as="geometry" />
        </mxCell>
        <mxCell id="yniILu94unpiqvauo760-14" value="" style="endArrow=none;html=1;rounded=0;labelBorderColor=none;strokeColor=#000000;fontSize=15;fontColor=#000000;exitX=0;exitY=0.5;exitDx=0;exitDy=0;entryX=1;entryY=0.5;entryDx=0;entryDy=0;" edge="1" parent="1" source="yniILu94unpiqvauo760-10" target="yniILu94unpiqvauo760-10">
          <mxGeometry width="50" height="50" relative="1" as="geometry">
            <mxPoint x="407" y="70" as="sourcePoint" />
            <mxPoint x="557" y="70" as="targetPoint" />
          </mxGeometry>
        </mxCell>
        <mxCell id="yniILu94unpiqvauo760-15" value="Login" style="text;html=1;strokeColor=none;fillColor=none;align=center;verticalAlign=middle;whiteSpace=wrap;rounded=0;fontSize=15;fontColor=#000000;" vertex="1" parent="1">
          <mxGeometry x="422" y="10" width="60" height="50" as="geometry" />
        </mxCell>
        <mxCell id="yniILu94unpiqvauo760-16" value="Do: User Login" style="text;html=1;strokeColor=none;fillColor=none;align=center;verticalAlign=middle;whiteSpace=wrap;rounded=0;fontSize=15;fontColor=#000000;" vertex="1" parent="1">
          <mxGeometry x="402" y="60" width="110" height="30" as="geometry" />
        </mxCell>
        <mxCell id="yniILu94unpiqvauo760-17" value="" style="rounded=1;whiteSpace=wrap;html=1;fontSize=15;fontColor=#000000;verticalAlign=top;" vertex="1" parent="1">
          <mxGeometry x="698.5" y="10" width="162.5" height="85" as="geometry" />
        </mxCell>
        <mxCell id="yniILu94unpiqvauo760-18" value="" style="endArrow=none;html=1;rounded=0;labelBorderColor=none;strokeColor=#000000;fontSize=15;fontColor=#000000;entryX=1;entryY=0.5;entryDx=0;entryDy=0;exitX=0;exitY=0.5;exitDx=0;exitDy=0;" edge="1" parent="1" source="yniILu94unpiqvauo760-17" target="yniILu94unpiqvauo760-17">
          <mxGeometry width="50" height="50" relative="1" as="geometry">
            <mxPoint x="706" y="82.5" as="sourcePoint" />
            <mxPoint x="756" y="32.5" as="targetPoint" />
          </mxGeometry>
        </mxCell>
        <mxCell id="yniILu94unpiqvauo760-19" value="Email Selection" style="text;html=1;strokeColor=none;fillColor=none;align=center;verticalAlign=middle;whiteSpace=wrap;rounded=0;fontSize=15;fontColor=#000000;" vertex="1" parent="1">
          <mxGeometry x="727" y="13" width="108" height="45" as="geometry" />
        </mxCell>
        <mxCell id="yniILu94unpiqvauo760-20" value="Do: User selects email" style="text;html=1;strokeColor=none;fillColor=none;align=center;verticalAlign=middle;whiteSpace=wrap;rounded=0;fontSize=15;fontColor=#000000;" vertex="1" parent="1">
          <mxGeometry x="701.5" y="58" width="155" height="30" as="geometry" />
        </mxCell>
        <mxCell id="yniILu94unpiqvauo760-21" value="Successful Login" style="text;html=1;align=center;verticalAlign=middle;resizable=0;points=[];autosize=1;strokeColor=none;fillColor=none;fontSize=15;fontColor=#000000;" vertex="1" parent="1">
          <mxGeometry x="541.5" y="27.5" width="140" height="30" as="geometry" />
        </mxCell>
        <mxCell id="yniILu94unpiqvauo760-22" value="" style="endArrow=classic;html=1;rounded=0;entryX=0;entryY=0.5;entryDx=0;entryDy=0;exitX=1;exitY=0.5;exitDx=0;exitDy=0;strokeColor=#FF3333;fontSize=15;" edge="1" parent="1" source="yniILu94unpiqvauo760-10" target="yniILu94unpiqvauo760-17">
          <mxGeometry width="50" height="50" relative="1" as="geometry">
            <mxPoint x="540" y="50" as="sourcePoint" />
            <mxPoint x="635" y="57" as="targetPoint" />
          </mxGeometry>
        </mxCell>
        <mxCell id="yniILu94unpiqvauo760-24" value="" style="endArrow=classic;html=1;rounded=0;exitX=0.5;exitY=1;exitDx=0;exitDy=0;strokeColor=#FF3333;entryX=0.5;entryY=0;entryDx=0;entryDy=0;fontSize=15;" edge="1" parent="1" source="yniILu94unpiqvauo760-17" target="yniILu94unpiqvauo760-26">
          <mxGeometry width="50" height="50" relative="1" as="geometry">
            <mxPoint x="511" y="230" as="sourcePoint" />
            <mxPoint x="790" y="170" as="targetPoint" />
          </mxGeometry>
        </mxCell>
        <mxCell id="yniILu94unpiqvauo760-30" value="" style="group;fontSize=15;" vertex="1" connectable="0" parent="1">
          <mxGeometry x="704.5" y="193" width="150" height="85" as="geometry" />
        </mxCell>
        <mxCell id="yniILu94unpiqvauo760-26" value="" style="rounded=1;whiteSpace=wrap;html=1;fontSize=15;fontColor=#000000;verticalAlign=top;" vertex="1" parent="yniILu94unpiqvauo760-30">
          <mxGeometry width="150" height="85" as="geometry" />
        </mxCell>
        <mxCell id="yniILu94unpiqvauo760-28" value="Authorization" style="text;html=1;strokeColor=none;fillColor=none;align=center;verticalAlign=middle;whiteSpace=wrap;rounded=0;fontSize=15;fontColor=#000000;" vertex="1" parent="yniILu94unpiqvauo760-30">
          <mxGeometry x="20" y="-3" width="110" height="50" as="geometry" />
        </mxCell>
        <mxCell id="yniILu94unpiqvauo760-27" value="" style="endArrow=none;html=1;rounded=0;labelBorderColor=none;strokeColor=#000000;fontSize=15;fontColor=#000000;exitX=0;exitY=0.5;exitDx=0;exitDy=0;entryX=1;entryY=0.5;entryDx=0;entryDy=0;" edge="1" parent="yniILu94unpiqvauo760-30" source="yniILu94unpiqvauo760-26" target="yniILu94unpiqvauo760-26">
          <mxGeometry width="50" height="50" relative="1" as="geometry">
            <mxPoint x="688.5" y="257" as="sourcePoint" />
            <mxPoint x="838.5" y="257" as="targetPoint" />
          </mxGeometry>
        </mxCell>
        <mxCell id="yniILu94unpiqvauo760-29" value="Do: Token Generation" style="text;html=1;strokeColor=none;fillColor=none;align=center;verticalAlign=middle;whiteSpace=wrap;rounded=0;fontSize=15;fontColor=#000000;" vertex="1" parent="yniILu94unpiqvauo760-30">
          <mxGeometry y="47" width="150" height="30" as="geometry" />
        </mxCell>
        <mxCell id="yniILu94unpiqvauo760-32" value="Email" style="text;html=1;align=center;verticalAlign=middle;resizable=0;points=[];autosize=1;strokeColor=none;fillColor=none;fontSize=15;fontColor=#000000;" vertex="1" parent="1">
          <mxGeometry x="775" y="133" width="60" height="30" as="geometry" />
        </mxCell>
        <mxCell id="yniILu94unpiqvauo760-33" value="" style="endArrow=classic;html=1;rounded=0;strokeColor=#FF3333;exitX=0;exitY=0.5;exitDx=0;exitDy=0;entryX=1;entryY=0.5;entryDx=0;entryDy=0;fontSize=15;" edge="1" parent="1" source="yniILu94unpiqvauo760-26" target="yniILu94unpiqvauo760-35">
          <mxGeometry width="50" height="50" relative="1" as="geometry">
            <mxPoint x="630" y="236" as="sourcePoint" />
            <mxPoint x="580" y="316" as="targetPoint" />
          </mxGeometry>
        </mxCell>
        <mxCell id="yniILu94unpiqvauo760-34" value="" style="group;fontSize=15;" vertex="1" connectable="0" parent="1">
          <mxGeometry x="485" y="193" width="150" height="85" as="geometry" />
        </mxCell>
        <mxCell id="yniILu94unpiqvauo760-35" value="" style="rounded=1;whiteSpace=wrap;html=1;fontSize=15;fontColor=#000000;verticalAlign=top;" vertex="1" parent="yniILu94unpiqvauo760-34">
          <mxGeometry width="150" height="85" as="geometry" />
        </mxCell>
        <mxCell id="yniILu94unpiqvauo760-36" value="Email Filtering" style="text;html=1;strokeColor=none;fillColor=none;align=center;verticalAlign=middle;whiteSpace=wrap;rounded=0;fontSize=15;fontColor=#000000;" vertex="1" parent="yniILu94unpiqvauo760-34">
          <mxGeometry x="10" y="-3" width="130" height="50" as="geometry" />
        </mxCell>
        <mxCell id="yniILu94unpiqvauo760-37" value="" style="endArrow=none;html=1;rounded=0;labelBorderColor=none;strokeColor=#000000;fontSize=15;fontColor=#000000;exitX=0;exitY=0.5;exitDx=0;exitDy=0;entryX=1;entryY=0.5;entryDx=0;entryDy=0;" edge="1" parent="yniILu94unpiqvauo760-34" source="yniILu94unpiqvauo760-35" target="yniILu94unpiqvauo760-35">
          <mxGeometry width="50" height="50" relative="1" as="geometry">
            <mxPoint x="688.5" y="257" as="sourcePoint" />
            <mxPoint x="838.5" y="257" as="targetPoint" />
          </mxGeometry>
        </mxCell>
        <mxCell id="yniILu94unpiqvauo760-38" value="Do: Filter Emails" style="text;html=1;strokeColor=none;fillColor=none;align=center;verticalAlign=middle;whiteSpace=wrap;rounded=0;fontSize=15;fontColor=#000000;" vertex="1" parent="yniILu94unpiqvauo760-34">
          <mxGeometry y="47" width="150" height="30" as="geometry" />
        </mxCell>
        <mxCell id="yniILu94unpiqvauo760-42" value="Tokens" style="text;html=1;align=center;verticalAlign=middle;resizable=0;points=[];autosize=1;strokeColor=none;fillColor=none;fontSize=15;fontColor=#000000;" vertex="1" parent="1">
          <mxGeometry x="635" y="210" width="70" height="30" as="geometry" />
        </mxCell>
        <mxCell id="yniILu94unpiqvauo760-43" value="" style="endArrow=classic;html=1;rounded=0;strokeColor=#FF3333;exitX=0;exitY=0.5;exitDx=0;exitDy=0;entryX=1;entryY=0.5;entryDx=0;entryDy=0;fontSize=15;" edge="1" parent="1" source="yniILu94unpiqvauo760-35" target="yniILu94unpiqvauo760-45">
          <mxGeometry width="50" height="50" relative="1" as="geometry">
            <mxPoint x="384" y="234.97" as="sourcePoint" />
            <mxPoint x="370" y="336" as="targetPoint" />
          </mxGeometry>
        </mxCell>
        <mxCell id="yniILu94unpiqvauo760-44" value="" style="group;fontSize=15;" vertex="1" connectable="0" parent="1">
          <mxGeometry x="251" y="193" width="150" height="85" as="geometry" />
        </mxCell>
        <mxCell id="yniILu94unpiqvauo760-45" value="" style="rounded=1;whiteSpace=wrap;html=1;fontSize=15;fontColor=#000000;verticalAlign=top;" vertex="1" parent="yniILu94unpiqvauo760-44">
          <mxGeometry width="150" height="85" as="geometry" />
        </mxCell>
        <mxCell id="yniILu94unpiqvauo760-46" value="Email Selection" style="text;html=1;strokeColor=none;fillColor=none;align=center;verticalAlign=middle;whiteSpace=wrap;rounded=0;fontSize=15;fontColor=#000000;" vertex="1" parent="yniILu94unpiqvauo760-44">
          <mxGeometry x="10" y="-3" width="130" height="50" as="geometry" />
        </mxCell>
        <mxCell id="yniILu94unpiqvauo760-47" value="" style="endArrow=none;html=1;rounded=0;labelBorderColor=none;strokeColor=#000000;fontSize=15;fontColor=#000000;exitX=0;exitY=0.5;exitDx=0;exitDy=0;entryX=1;entryY=0.5;entryDx=0;entryDy=0;" edge="1" parent="yniILu94unpiqvauo760-44" source="yniILu94unpiqvauo760-45" target="yniILu94unpiqvauo760-45">
          <mxGeometry width="50" height="50" relative="1" as="geometry">
            <mxPoint x="688.5" y="257" as="sourcePoint" />
            <mxPoint x="838.5" y="257" as="targetPoint" />
          </mxGeometry>
        </mxCell>
        <mxCell id="yniILu94unpiqvauo760-48" value="Do: Select Emails" style="text;html=1;strokeColor=none;fillColor=none;align=center;verticalAlign=middle;whiteSpace=wrap;rounded=0;fontSize=15;fontColor=#000000;" vertex="1" parent="yniILu94unpiqvauo760-44">
          <mxGeometry y="47" width="150" height="30" as="geometry" />
        </mxCell>
        <mxCell id="yniILu94unpiqvauo760-49" value="Email List" style="text;html=1;align=center;verticalAlign=middle;resizable=0;points=[];autosize=1;strokeColor=none;fillColor=none;fontSize=15;fontColor=#000000;" vertex="1" parent="1">
          <mxGeometry x="401" y="210" width="90" height="30" as="geometry" />
        </mxCell>
        <mxCell id="yniILu94unpiqvauo760-50" value="" style="group;fontSize=15;" vertex="1" connectable="0" parent="1">
          <mxGeometry x="16" y="193" width="150" height="85" as="geometry" />
        </mxCell>
        <mxCell id="yniILu94unpiqvauo760-51" value="" style="rounded=1;whiteSpace=wrap;html=1;fontSize=15;fontColor=#000000;verticalAlign=top;" vertex="1" parent="yniILu94unpiqvauo760-50">
          <mxGeometry width="150" height="85" as="geometry" />
        </mxCell>
        <mxCell id="yniILu94unpiqvauo760-53" value="" style="endArrow=none;html=1;rounded=0;labelBorderColor=none;strokeColor=#000000;fontSize=15;fontColor=#000000;exitX=0;exitY=0.5;exitDx=0;exitDy=0;entryX=1;entryY=0.5;entryDx=0;entryDy=0;" edge="1" parent="yniILu94unpiqvauo760-50" source="yniILu94unpiqvauo760-51" target="yniILu94unpiqvauo760-51">
          <mxGeometry width="50" height="50" relative="1" as="geometry">
            <mxPoint x="688.5" y="257" as="sourcePoint" />
            <mxPoint x="838.5" y="257" as="targetPoint" />
          </mxGeometry>
        </mxCell>
        <mxCell id="yniILu94unpiqvauo760-54" value="Do: Block Emails" style="text;html=1;strokeColor=none;fillColor=none;align=center;verticalAlign=middle;whiteSpace=wrap;rounded=0;fontSize=15;fontColor=#000000;" vertex="1" parent="yniILu94unpiqvauo760-50">
          <mxGeometry y="47" width="150" height="30" as="geometry" />
        </mxCell>
        <mxCell id="yniILu94unpiqvauo760-52" value="Email Blocking" style="text;html=1;strokeColor=none;fillColor=none;align=center;verticalAlign=middle;whiteSpace=wrap;rounded=0;fontSize=15;fontColor=#000000;" vertex="1" parent="yniILu94unpiqvauo760-50">
          <mxGeometry x="10" y="-2" width="130" height="50" as="geometry" />
        </mxCell>
        <mxCell id="yniILu94unpiqvauo760-55" value="" style="endArrow=classic;html=1;rounded=0;strokeColor=#FF3333;exitX=0;exitY=0.5;exitDx=0;exitDy=0;entryX=1;entryY=0.5;entryDx=0;entryDy=0;fontSize=15;" edge="1" parent="1" source="yniILu94unpiqvauo760-45" target="yniILu94unpiqvauo760-51">
          <mxGeometry width="50" height="50" relative="1" as="geometry">
            <mxPoint x="251" y="316" as="sourcePoint" />
            <mxPoint x="150" y="316" as="targetPoint" />
          </mxGeometry>
        </mxCell>
        <mxCell id="yniILu94unpiqvauo760-56" value="Email List" style="text;html=1;align=center;verticalAlign=middle;resizable=0;points=[];autosize=1;strokeColor=none;fillColor=none;fontSize=15;fontColor=#000000;" vertex="1" parent="1">
          <mxGeometry x="160" y="210" width="90" height="30" as="geometry" />
        </mxCell>
        <mxCell id="yniILu94unpiqvauo760-59" value="Change Email" style="text;html=1;align=center;verticalAlign=middle;resizable=0;points=[];autosize=1;strokeColor=none;fillColor=none;fontSize=15;fontColor=#000000;" vertex="1" parent="1">
          <mxGeometry x="350" y="117" width="120" height="30" as="geometry" />
        </mxCell>
        <mxCell id="yniILu94unpiqvauo760-60" value="" style="ellipse;html=1;shape=endState;fillColor=#000000;strokeColor=#ff0000;fontSize=12;fontColor=#000000;" vertex="1" parent="1">
          <mxGeometry x="76" y="346" width="30" height="30" as="geometry" />
        </mxCell>
        <mxCell id="yniILu94unpiqvauo760-61" value="" style="endArrow=classic;html=1;rounded=0;labelBorderColor=none;strokeColor=#FF3333;fontSize=15;fontColor=#000000;exitX=0.5;exitY=1;exitDx=0;exitDy=0;entryX=0.5;entryY=0;entryDx=0;entryDy=0;" edge="1" parent="1" source="yniILu94unpiqvauo760-51" target="yniILu94unpiqvauo760-60">
          <mxGeometry width="50" height="50" relative="1" as="geometry">
            <mxPoint x="335" y="289" as="sourcePoint" />
            <mxPoint x="335" y="531" as="targetPoint" />
          </mxGeometry>
        </mxCell>
        <mxCell id="yniILu94unpiqvauo760-62" value="Blocking Emails" style="text;html=1;align=center;verticalAlign=middle;resizable=0;points=[];autosize=1;strokeColor=none;fillColor=none;fontSize=15;fontColor=#000000;" vertex="1" parent="1">
          <mxGeometry x="82" y="296" width="130" height="30" as="geometry" />
        </mxCell>
        <mxCell id="yniILu94unpiqvauo760-63" value="" style="endArrow=classic;html=1;rounded=0;entryX=0.5;entryY=1;entryDx=0;entryDy=0;strokeColor=#FF3333;fontSize=15;exitX=0.5;exitY=0;exitDx=0;exitDy=0;" edge="1" parent="1" source="yniILu94unpiqvauo760-51" target="yniILu94unpiqvauo760-17">
          <mxGeometry width="50" height="50" relative="1" as="geometry">
            <mxPoint x="180" y="150" as="sourcePoint" />
            <mxPoint x="658" y="147.5" as="targetPoint" />
          </mxGeometry>
        </mxCell>
        <mxCell id="yniILu94unpiqvauo760-64" value="&lt;font style=&quot;font-size: 15px;&quot;&gt;Start&lt;/font&gt;" style="text;html=1;strokeColor=none;fillColor=none;align=center;verticalAlign=middle;whiteSpace=wrap;rounded=0;" vertex="1" parent="1">
          <mxGeometry x="43" y="28" width="60" height="30" as="geometry" />
        </mxCell>
        <mxCell id="yniILu94unpiqvauo760-66" value="&lt;font style=&quot;font-size: 15px;&quot;&gt;End&lt;/font&gt;" style="text;html=1;strokeColor=none;fillColor=none;align=center;verticalAlign=middle;whiteSpace=wrap;rounded=0;" vertex="1" parent="1">
          <mxGeometry x="94" y="346" width="60" height="30" as="geometry" />
        </mxCell>
      </root>
    </mxGraphModel>
  </diagram>
</mxfile>
